<?xml version="1.0" encoding="UTF-8"?>
<svg xmlns="http://www.w3.org/2000/svg" xmlns:xlink="http://www.w3.org/1999/xlink" id="Capa_2" width="386.66" height="124.82" viewBox="0 0 386.66 124.82">
  <defs>
    <linearGradient id="Degradado_sin_nombre_166" x1="0" y1="108.92" x2="262.71" y2="108.92" gradientUnits="userSpaceOnUse">
      <stop offset="0" stop-color="#3bff28"></stop>
      <stop offset=".11" stop-color="#3aff2b"></stop>
      <stop offset=".22" stop-color="#36ff36"></stop>
      <stop offset=".32" stop-color="#31ff49"></stop>
      <stop offset=".42" stop-color="#2aff63"></stop>
      <stop offset=".51" stop-color="#21ff85"></stop>
      <stop offset=".61" stop-color="#16ffae"></stop>
      <stop offset=".7" stop-color="#08ffde"></stop>
      <stop offset=".75" stop-color="aqua"></stop>
      <stop offset=".83" stop-color="#0dd3ff"></stop>
      <stop offset="1" stop-color="#2f6bff"></stop>
    </linearGradient>
  </defs>
  <g id="Capa_1-2">
    <path d="M18.92.32h42.48c4.33,0,8.26.61,11.8,1.82,3.54,1.21,6.49,3.02,8.85,5.41,2.36,2.39,4.01,5.43,4.96,9.1.95,3.67,1.03,7.96.25,12.88-.79,4.92-2.25,9.19-4.38,12.83-2.13,3.64-4.74,6.67-7.82,9.1-3.08,2.43-6.59,4.23-10.52,5.41-3.93,1.18-8.06,1.77-12.39,1.77h-19.67l-2.36,15.44H7.32L18.92.32ZM38.68,19.99l-3.05,18.98h17.4c1.31,0,2.57-.15,3.79-.44,1.21-.3,2.33-.8,3.34-1.52,1.02-.72,1.9-1.69,2.65-2.9.75-1.21,1.26-2.7,1.52-4.47.52-3.54-.08-6.03-1.82-7.47-1.74-1.44-3.92-2.16-6.54-2.16h-17.31Z" fill="#fff"></path>
    <path d="M100.92.32h43.95c4.19,0,8.03.49,11.5,1.48,3.47.98,6.36,2.54,8.65,4.67,2.29,2.13,3.93,4.88,4.92,8.26.98,3.38,1.08,7.46.3,12.24-.98,6.29-3.29,11.42-6.93,15.39-3.64,3.97-7.92,6.9-12.83,8.8l13.77,22.91h-26.94l-9.64-18.09h-12.78l-2.85,18.09h-22.81L100.92.32ZM120.59,19.99l-2.65,16.91h19.08c2.75,0,5.01-.65,6.78-1.97,1.77-1.31,2.88-3.41,3.34-6.29.26-1.57.23-2.92-.1-4.03-.33-1.11-.84-2.02-1.52-2.7s-1.54-1.18-2.56-1.48c-1.02-.29-2.11-.44-3.29-.44h-19.08Z" fill="#fff"></path>
    <path d="M219.9.32h33.23l6.39,42.97L279.49.32h33.23l-11.6,73.75h-22.81l6.88-43.66-19.76,43.66h-21.63l-5.8-43.66-6.98,43.66h-22.81L219.9.32Z" fill="#fff"></path>
    <path d="M323.83.32h62.83l-3.15,19.67h-39.92l-1.47,9.14h36.68l-2.56,16.13h-36.68l-1.48,9.14h40.02l-3.15,19.67h-62.83L323.83.32Z" fill="#fff"></path>
    <path d="M196.28,73.86h-22.76l6.85-43.13c.74-4.7,3.46-7.43,7.81-9.67,4.75-2.44,13.63-6.96,13.63-6.96l.12-.78-15.59,3.58c-2.88.67-3.64-.95-3.41-2.41l2.3-14.49h22.76l-11.7,73.86Z" fill="#fff"></path>
    <path d="M299.85,124.25h-6.36c-.14-.69-.18-1.98-.13-2.78-1.85,2.36-4.53,3.34-8.58,3.34-7.74,0-11.89-5.3-12.39-12.33-.65-9.17,4.41-19.12,16.85-19.12,8.53,0,13.14,4.41,13.59,9.92h-8.85c-.18-1.69-1.34-3.89-5.01-3.89-5.95,0-7.7,7.98-7.34,12.94.27,3.79,1.87,6.32,5.4,6.32,4.13,0,5.27-2.56,5.68-5.37l.03-.16h-5.87l1.02-6.16h14.34l-2.38,17.29Z" fill="#fff"></path>
    <path d="M310.46,124.25l1.64-10.79c.06-.4.06-.69-.14-1.15l-7.81-18.37h9.23c1.32,4.15,3.27,9.72,4.14,13.19,1.84-3.5,5.6-9.26,8.04-13.19h9.55l-13.66,18.91c-.21.28-.4.65-.46,1.14l-1.54,10.27h-8.98Z" fill="#fff"></path>
    <path d="M360.09,114.36c.71-4.74,1.76-11.04,2.42-14.64h-.2c-2.28,6.5-5.6,15.68-9.06,24.54h-7.21c-.47-7.93-1.24-17.79-1.42-24.53h-.26c-.29,3.57-1.05,9.68-1.84,14.88l-1.47,9.65h-7.99l4.61-30.32h12.93c.46,5.76.92,14.94.98,19.4h.16c1.56-4.96,4.57-12.41,7.27-19.4h12.78l-4.61,30.32h-8.57l1.49-9.89Z" fill="#fff"></path>
    <path d="M261.87,99.35c-.68,3.07-2.56,5.23-4.75,5.48L4.13,123.93c-2.92,0-4.37-1.58-4.09-4.07l3.51-22.52c.22-1.98,2.12-3.44,3.79-3.44h255.37l-.84,5.44Z" fill="url(#Degradado_sin_nombre_166)"></path>
  </g>
</svg>
