<svg xmlns="http://www.w3.org/2000/svg" id="Capa_2" width="588.66" height="170.82" viewBox="0 0 588.66 170.82"><g id="Capa_1-2"><polygon points="18.35 66.34 66.06 66.34 66.06 51.24 18.35 51.24 18.35 25.69 72.13 25.69 72.13 10.16 0 10.16 0 108.97 74.1 108.97 74.1 93.44 18.35 93.44 18.35 66.34" fill="#fff"></polygon><path d="M137.55,70.22c-2.78-1.46-5.81-2.59-9.1-3.39-3.29-.8-6.61-1.46-9.95-1.98-3.34-.52-6.38-1.08-9.1-1.69-2.73-.61-4.94-1.48-6.63-2.61-1.69-1.13-2.54-2.82-2.54-5.08,0-2.45,1.32-4.45,3.95-6,2.63-1.55,6.59-2.33,11.86-2.33,3.57,0,7.2.4,10.87,1.2,3.67.8,7.24,2.24,10.73,4.31l6.92-13.41c-3.48-2.07-7.83-3.69-13.06-4.87-5.22-1.18-10.33-1.76-15.31-1.76-6.78,0-12.63.99-17.57,2.96-4.94,1.98-8.78,4.73-11.5,8.26-2.73,3.53-4.09,7.65-4.09,12.35,0,4.42.85,7.95,2.54,10.59,1.69,2.64,3.9,4.73,6.63,6.28,2.73,1.55,5.76,2.73,9.1,3.53,3.34.8,6.68,1.44,10.02,1.91,3.34.47,6.37.99,9.1,1.55,2.73.56,4.94,1.39,6.63,2.47,1.69,1.08,2.54,2.66,2.54,4.73,0,2.54-1.25,4.54-3.74,6-2.49,1.46-6.47,2.19-11.93,2.19-4.8,0-9.55-.68-14.26-2.05-4.71-1.36-8.75-3.13-12.14-5.29l-6.77,13.41c3.48,2.35,8.09,4.35,13.83,6,5.74,1.64,11.81,2.47,18.21,2.47,7.06,0,13.1-.97,18.14-2.89,5.03-1.93,8.94-4.61,11.72-8.05,2.77-3.43,4.16-7.55,4.16-12.35,0-4.23-.85-7.67-2.54-10.3-1.69-2.63-3.93-4.68-6.7-6.14Z" fill="#fff"></path><path d="M207.42,70.22c-2.78-1.46-5.81-2.59-9.1-3.39-3.29-.8-6.61-1.46-9.95-1.98-3.34-.52-6.38-1.08-9.1-1.69-2.73-.61-4.94-1.48-6.63-2.61-1.69-1.13-2.54-2.82-2.54-5.08,0-2.45,1.32-4.45,3.95-6,2.63-1.55,6.59-2.33,11.86-2.33,3.57,0,7.2.4,10.87,1.2,3.67.8,7.24,2.24,10.73,4.31l6.92-13.41c-3.48-2.07-7.83-3.69-13.06-4.87-5.22-1.18-10.33-1.76-15.31-1.76-6.78,0-12.63.99-17.57,2.96-4.94,1.98-8.78,4.73-11.5,8.26-2.73,3.53-4.09,7.65-4.09,12.35,0,4.42.85,7.95,2.54,10.59,1.69,2.64,3.9,4.73,6.63,6.28,2.73,1.55,5.76,2.73,9.1,3.53,3.34.8,6.68,1.44,10.02,1.91,3.34.47,6.37.99,9.1,1.55,2.73.56,4.94,1.39,6.63,2.47,1.69,1.08,2.54,2.66,2.54,4.73,0,2.54-1.25,4.54-3.74,6-2.49,1.46-6.47,2.19-11.93,2.19-4.8,0-9.55-.68-14.26-2.05-4.71-1.36-8.75-3.13-12.14-5.29l-6.77,13.41c3.48,2.35,8.09,4.35,13.83,6,5.74,1.64,11.81,2.47,18.21,2.47,7.06,0,13.1-.97,18.14-2.89,5.03-1.93,8.94-4.61,11.72-8.05,2.77-3.43,4.16-7.55,4.16-12.35,0-4.23-.85-7.67-2.54-10.3-1.69-2.63-3.93-4.68-6.7-6.14Z" fill="#fff"></path><path d="M281.46,37.47c-5.74-3.25-12.28-4.87-19.62-4.87s-14.23,1.67-20.11,5.01c-5.88,3.34-10.49,7.9-13.83,13.69-3.34,5.79-5.01,12.45-5.01,19.97s1.72,14.19,5.15,19.97c3.43,5.79,8.28,10.35,14.54,13.69,6.26,3.34,13.57,5.01,21.95,5.01,6.59,0,12.44-1.03,17.57-3.11,5.13-2.07,9.43-5.08,12.92-9.03l-9.6-11.01c-2.64,2.73-5.65,4.8-9.03,6.21-3.39,1.41-7.2,2.12-11.43,2.12-4.99,0-9.36-.96-13.13-2.89-3.77-1.93-6.66-4.63-8.68-8.12-1.28-2.19-2.15-4.59-2.62-7.2h59.15c.09-.75.16-1.62.21-2.61.05-.99.07-1.81.07-2.47,0-8-1.65-14.91-4.94-20.75-3.29-5.83-7.81-10.38-13.55-13.62ZM242.78,57.59c1.79-3.39,4.35-6,7.69-7.83,3.34-1.83,7.13-2.75,11.36-2.75s8.09.92,11.29,2.75c3.2,1.83,5.72,4.42,7.55,7.76,1.29,2.34,2.09,4.91,2.43,7.69h-42.72c.39-2.78,1.18-5.32,2.4-7.62Z" fill="#fff"></path><path d="M372.99,36.13c-4.66-2.35-10.04-3.53-16.16-3.53-6.59,0-12.4,1.32-17.43,3.95-3.36,1.76-6.15,4.01-8.4,6.73v-9.69h-16.8v75.37h17.5v-38.11c0-5.08.87-9.29,2.61-12.63,1.74-3.34,4.21-5.86,7.41-7.55,3.2-1.69,6.87-2.54,11.01-2.54,5.74,0,10.16,1.65,13.27,4.94,3.11,3.29,4.66,8.28,4.66,14.96v40.93h17.64v-43.19c0-7.62-1.39-13.88-4.16-18.77-2.78-4.89-6.49-8.52-11.15-10.87Z" fill="#fff"></path><path d="M452.02,92.38c-3.25,1.74-6.75,2.61-10.52,2.61-4.33,0-8.23-.96-11.71-2.89-3.48-1.93-6.21-4.68-8.19-8.26-1.98-3.57-2.96-7.76-2.96-12.56s.99-8.96,2.96-12.49c1.98-3.53,4.7-6.26,8.19-8.19,3.48-1.93,7.39-2.89,11.71-2.89,3.76,0,7.27.87,10.52,2.61,3.25,1.74,6,4.35,8.26,7.83l13.41-7.9c-2.82-5.74-7.06-10.11-12.7-13.13-5.65-3.01-12.09-4.52-19.34-4.52-7.9,0-14.94,1.67-21.1,5.01-6.17,3.34-10.99,7.88-14.47,13.62-3.48,5.74-5.22,12.42-5.22,20.04s1.74,14.19,5.22,19.97c3.48,5.79,8.3,10.35,14.47,13.69,6.16,3.34,13.2,5.01,21.1,5.01,7.25,0,13.69-1.53,19.34-4.59,5.65-3.06,9.88-7.41,12.7-13.06l-13.41-7.9c-2.26,3.58-5.01,6.23-8.26,7.97Z" fill="#fff"></path><rect x="490.57" y="33.59" width="17.5" height="75.37" fill="#7d00d6"></rect><path d="M499.32,0c-3.29,0-6,1.04-8.12,3.11-2.12,2.07-3.18,4.52-3.18,7.34,0,3.01,1.06,5.55,3.18,7.62,2.12,2.07,4.82,3.1,8.12,3.1s6.12-1.06,8.19-3.18c2.07-2.12,3.11-4.68,3.11-7.69s-1.06-5.48-3.18-7.41c-2.12-1.93-4.82-2.89-8.12-2.89Z" fill="#7d00d6"></path><path d="M579.77,40.51c-5.93-5.27-14.4-7.9-25.41-7.9-6.02,0-11.81.8-17.36,2.4-5.55,1.6-10.4,3.95-14.54,7.06l6.92,12.84c2.92-2.35,6.4-4.19,10.44-5.5,4.04-1.32,8.14-1.98,12.28-1.98,6.4,0,11.17,1.44,14.33,4.3,3.15,2.87,4.73,6.89,4.73,12.07v1.13h-19.62c-7.62,0-13.74.99-18.35,2.96-4.61,1.98-7.93,4.66-9.95,8.04-2.02,3.39-3.03,7.2-3.03,11.43s1.15,8.21,3.46,11.64c2.3,3.44,5.58,6.12,9.81,8.05s9.17,2.89,14.82,2.89c6.78,0,12.33-1.22,16.66-3.67,2.98-1.69,5.33-3.85,7.06-6.48v9.16h16.66v-44.18c0-10.92-2.96-19.01-8.89-24.28ZM563.61,94.15c-3.44,1.98-7.32,2.96-11.64,2.96s-8.05-.94-10.59-2.82c-2.54-1.88-3.81-4.38-3.81-7.48,0-2.92,1.06-5.34,3.18-7.27,2.12-1.93,6.14-2.89,12.07-2.89h18.35v8.75c-1.6,3.86-4.12,6.78-7.55,8.75Z" fill="#7d00d6"></path><path d="M474.97,63.76c-4.43,0-8.02,3.59-8.02,8.02s3.59,8.02,8.02,8.02,8.02-3.59,8.02-8.02-3.59-8.02-8.02-8.02Z" fill="#7d00d6"></path><path d="M125.8,162.8h12.83v1.95h-15.09v-21.33h14.63v1.95h-12.37v17.43ZM125.56,152.96h11.28v1.92h-11.28v-1.92Z" fill="#fff"></path><path d="M148.75,164.91c-1.32,0-2.57-.19-3.75-.56-1.18-.37-2.1-.85-2.77-1.42l.98-1.71c.65.49,1.48.91,2.5,1.26,1.02.36,2.08.53,3.2.53,1.52,0,2.62-.24,3.29-.72s1.01-1.11,1.01-1.91c0-.59-.19-1.05-.56-1.39-.38-.34-.87-.59-1.48-.76-.61-.17-1.29-.32-2.04-.44-.75-.12-1.5-.26-2.24-.43-.74-.16-1.42-.4-2.03-.72-.61-.31-1.1-.75-1.48-1.29-.38-.55-.56-1.28-.56-2.2s.24-1.66.73-2.35c.49-.69,1.2-1.23,2.15-1.63s2.1-.59,3.46-.59c1.04,0,2.07.14,3.11.41,1.04.27,1.89.64,2.56,1.08l-.94,1.74c-.71-.49-1.47-.84-2.29-1.05-.81-.21-1.63-.32-2.44-.32-1.44,0-2.5.25-3.19.75-.68.5-1.02,1.13-1.02,1.9,0,.61.19,1.09.56,1.43.38.35.87.62,1.49.81.62.19,1.3.35,2.04.47.74.12,1.48.27,2.22.44.74.17,1.42.41,2.04.7s1.12.71,1.49,1.25c.38.54.56,1.25.56,2.12,0,.94-.26,1.74-.78,2.42s-1.27,1.21-2.26,1.58c-.99.38-2.18.56-3.58.56Z" fill="#fff"></path><path d="M158.04,150.55v-1.8h9.9v1.8h-9.9ZM165.6,164.91c-1.5,0-2.66-.41-3.47-1.22-.81-.81-1.22-1.96-1.22-3.44v-15.02h2.16v14.9c0,.93.24,1.66.72,2.16.48.51,1.16.76,2.06.76.95,0,1.75-.28,2.38-.82l.76,1.55c-.43.39-.94.67-1.54.85-.6.18-1.21.28-1.84.28Z" fill="#fff"></path><path d="M174.14,164.75v-16h2.07v4.36l-.21-.76c.45-1.22,1.2-2.15,2.25-2.79,1.06-.64,2.37-.96,3.93-.96v2.1c-.08,0-.16,0-.24-.01-.08-.01-.16-.01-.24-.01-1.69,0-3.01.51-3.96,1.54-.96,1.03-1.43,2.48-1.43,4.37v8.17h-2.16Z" fill="#fff"></path><path d="M190.65,164.91c-1.2,0-2.24-.2-3.12-.6-.88-.4-1.56-.94-2.03-1.64-.47-.7-.7-1.51-.7-2.42,0-.83.2-1.59.59-2.27.4-.68,1.05-1.23,1.95-1.65.9-.42,2.12-.62,3.64-.62h5.52v1.62h-5.46c-1.54,0-2.62.27-3.22.82s-.9,1.23-.9,2.04c0,.91.36,1.64,1.07,2.19.71.55,1.71.82,2.99.82s2.27-.28,3.15-.84c.88-.56,1.53-1.37,1.94-2.42l.49,1.49c-.41,1.06-1.11,1.9-2.12,2.53-1.01.63-2.27.94-3.79.94ZM196.17,164.75v-3.54l-.09-.58v-5.91c0-1.36-.38-2.41-1.14-3.14-.76-.73-1.89-1.1-3.4-1.1-1.04,0-2.02.17-2.96.52-.93.35-1.73.8-2.38,1.37l-.98-1.62c.81-.69,1.79-1.22,2.93-1.6,1.14-.38,2.34-.56,3.6-.56,2.07,0,3.67.51,4.8,1.54,1.13,1.03,1.69,2.59,1.69,4.68v9.94h-2.07Z" fill="#fff"></path><path d="M202.84,150.55v-1.8h9.9v1.8h-9.9ZM210.4,164.91c-1.5,0-2.66-.41-3.47-1.22-.81-.81-1.22-1.96-1.22-3.44v-15.02h2.16v14.9c0,.93.24,1.66.72,2.16.48.51,1.16.76,2.06.76.95,0,1.75-.28,2.38-.82l.76,1.55c-.43.39-.94.67-1.54.85-.6.18-1.21.28-1.84.28Z" fill="#fff"></path><path d="M225.15,164.91c-1.67,0-3.13-.35-4.39-1.05-1.26-.7-2.24-1.66-2.96-2.9-.71-1.23-1.07-2.64-1.07-4.22s.34-2.99,1.02-4.21c.68-1.22,1.62-2.18,2.8-2.88,1.19-.7,2.52-1.05,4.01-1.05s2.84.34,4.01,1.02c1.17.68,2.09,1.64,2.76,2.86.67,1.23,1.01,2.65,1.01,4.25,0,.1,0,.21-.02.32-.01.11-.02.23-.02.35h-13.93v-1.61h12.77l-.85.64c0-1.16-.25-2.19-.75-3.09-.5-.9-1.17-1.61-2.03-2.12-.85-.51-1.84-.76-2.96-.76s-2.08.25-2.96.76c-.87.51-1.55,1.22-2.04,2.13s-.73,1.96-.73,3.14v.34c0,1.22.27,2.29.81,3.21.54.92,1.29,1.65,2.25,2.16.97.52,2.07.78,3.31.78.97,0,1.88-.17,2.73-.52s1.57-.87,2.18-1.59l1.22,1.4c-.71.85-1.6,1.5-2.67,1.95-1.07.45-2.24.67-3.52.67Z" fill="#fff"></path><path d="M244.41,164.14c-1.52,0-2.9-.33-4.11-.99-1.22-.66-2.18-1.58-2.88-2.76-.7-1.18-1.05-2.53-1.05-4.05s.35-2.87,1.05-4.04,1.66-2.08,2.88-2.73c1.22-.65,2.59-.98,4.11-.98,1.42,0,2.7.29,3.84.88,1.14.59,2.04,1.46,2.71,2.62.67,1.16,1.01,2.57,1.01,4.24s-.34,3.08-1.01,4.24c-.67,1.16-1.57,2.04-2.71,2.65-1.14.61-2.42.91-3.84.91ZM244.81,170.82c-1.46,0-2.86-.21-4.21-.64-1.34-.43-2.43-1.04-3.26-1.83l1.1-1.64c.75.67,1.68,1.2,2.79,1.6,1.11.4,2.28.59,3.52.59,2.03,0,3.52-.47,4.48-1.42.95-.94,1.43-2.41,1.43-4.4v-3.99l.3-2.74-.21-2.74v-4.84h2.07v14.05c0,2.76-.68,4.79-2.03,6.08-1.35,1.29-3.35,1.93-5.99,1.93ZM244.63,162.22c1.18,0,2.22-.25,3.14-.75.91-.5,1.64-1.19,2.16-2.07s.79-1.91.79-3.06-.26-2.17-.79-3.05c-.53-.87-1.25-1.56-2.16-2.06-.91-.5-1.96-.75-3.14-.75s-2.2.25-3.12.75c-.92.5-1.65,1.18-2.16,2.06-.52.87-.78,1.89-.78,3.05s.26,2.18.78,3.06c.52.88,1.24,1.57,2.16,2.07.92.5,1.97.75,3.12.75Z" fill="#fff"></path><path d="M261.17,145.22c-.45,0-.82-.15-1.13-.46-.3-.3-.46-.67-.46-1.1s.15-.79.46-1.08c.3-.29.68-.44,1.13-.44s.82.14,1.13.43.46.64.46,1.07c0,.45-.15.82-.44,1.13-.29.3-.68.46-1.14.46ZM260.08,164.75v-16h2.16v16h-2.16Z" fill="#fff"></path><path d="M274,164.91c-1.2,0-2.24-.2-3.12-.6-.88-.4-1.56-.94-2.03-1.64-.47-.7-.7-1.51-.7-2.42,0-.83.2-1.59.59-2.27.4-.68,1.05-1.23,1.95-1.65.9-.42,2.12-.62,3.64-.62h5.52v1.62h-5.46c-1.54,0-2.62.27-3.22.82s-.9,1.23-.9,2.04c0,.91.36,1.64,1.07,2.19.71.55,1.71.82,2.99.82s2.27-.28,3.15-.84c.88-.56,1.53-1.37,1.94-2.42l.49,1.49c-.41,1.06-1.11,1.9-2.12,2.53-1.01.63-2.27.94-3.79.94ZM279.52,164.75v-3.54l-.09-.58v-5.91c0-1.36-.38-2.41-1.14-3.14-.76-.73-1.89-1.1-3.4-1.1-1.04,0-2.02.17-2.96.52-.93.35-1.73.8-2.38,1.37l-.98-1.62c.81-.69,1.79-1.22,2.93-1.6,1.14-.38,2.34-.56,3.6-.56,2.07,0,3.67.51,4.8,1.54,1.13,1.03,1.69,2.59,1.69,4.68v9.94h-2.07Z" fill="#fff"></path><path d="M304.27,164.91c-1.52,0-2.89-.35-4.1-1.04-1.21-.69-2.16-1.65-2.85-2.86-.69-1.22-1.04-2.64-1.04-4.27s.35-3.02,1.04-4.25c.69-1.23,1.64-2.18,2.85-2.86,1.21-.68,2.58-1.02,4.1-1.02,1.42,0,2.69.31,3.79.94,1.11.63,1.99,1.55,2.64,2.76.65,1.21.97,2.69.97,4.43s-.33,3.22-.99,4.43c-.66,1.21-1.54,2.13-2.65,2.77-1.11.64-2.36.96-3.76.96ZM304.42,162.99c1.14,0,2.16-.26,3.06-.78.9-.52,1.62-1.25,2.13-2.2s.78-2.04.78-3.28-.26-2.33-.78-3.26-1.23-1.67-2.13-2.2c-.9-.53-1.93-.79-3.06-.79s-2.12.26-3.02.79c-.89.53-1.61,1.26-2.13,2.2-.53.93-.79,2.02-.79,3.26s.26,2.33.79,3.28c.53.94,1.24,1.68,2.13,2.2.89.52,1.9.78,3.02.78ZM310.36,170.67v-10.67l.3-3.23-.21-3.2v-4.81h2.07v21.91h-2.16Z" fill="#fff"></path><path d="M326.39,164.91c-1.36,0-2.55-.25-3.57-.76-1.02-.51-1.8-1.27-2.36-2.29-.56-1.02-.84-2.29-.84-3.81v-9.29h2.16v9.05c0,1.71.42,2.99,1.26,3.85.84.86,2.03,1.3,3.55,1.3,1.12,0,2.09-.23,2.91-.69.82-.46,1.45-1.12,1.89-2s.66-1.92.66-3.14v-8.38h2.16v16h-2.07v-4.39l.34.79c-.51,1.18-1.3,2.1-2.36,2.76-1.07.66-2.31.99-3.73.99Z" fill="#fff"></path><path d="M348.27,164.91c-1.67,0-3.13-.35-4.39-1.05-1.26-.7-2.24-1.66-2.96-2.9-.71-1.23-1.07-2.64-1.07-4.22s.34-2.99,1.02-4.21c.68-1.22,1.62-2.18,2.8-2.88,1.19-.7,2.52-1.05,4.01-1.05s2.84.34,4.01,1.02c1.17.68,2.09,1.64,2.76,2.86.67,1.23,1.01,2.65,1.01,4.25,0,.1,0,.21-.02.32-.01.11-.02.23-.02.35h-13.93v-1.61h12.77l-.85.64c0-1.16-.25-2.19-.75-3.09-.5-.9-1.17-1.61-2.03-2.12-.85-.51-1.84-.76-2.96-.76s-2.08.25-2.96.76c-.87.51-1.55,1.22-2.04,2.13s-.73,1.96-.73,3.14v.34c0,1.22.27,2.29.81,3.21.54.92,1.29,1.65,2.25,2.16.97.52,2.07.78,3.31.78.97,0,1.88-.17,2.73-.52s1.57-.87,2.18-1.59l1.22,1.4c-.71.85-1.6,1.5-2.67,1.95-1.07.45-2.24.67-3.52.67Z" fill="#fff"></path><path d="M377.11,164.91c-1.67,0-3.13-.35-4.39-1.05-1.26-.7-2.24-1.66-2.96-2.9-.71-1.23-1.07-2.64-1.07-4.22s.34-2.99,1.02-4.21c.68-1.22,1.62-2.18,2.8-2.88,1.19-.7,2.52-1.05,4.01-1.05s2.84.34,4.01,1.02c1.17.68,2.09,1.64,2.76,2.86.67,1.23,1.01,2.65,1.01,4.25,0,.1,0,.21-.02.32-.01.11-.02.23-.02.35h-13.93v-1.61h12.77l-.85.64c0-1.16-.25-2.19-.75-3.09-.5-.9-1.17-1.61-2.03-2.12-.85-.51-1.84-.76-2.96-.76s-2.08.25-2.96.76c-.87.51-1.55,1.22-2.04,2.13s-.73,1.96-.73,3.14v.34c0,1.22.27,2.29.81,3.21.54.92,1.29,1.65,2.25,2.16.97.52,2.07.78,3.31.78.97,0,1.88-.17,2.73-.52s1.57-.87,2.18-1.59l1.22,1.4c-.71.85-1.6,1.5-2.67,1.95-1.07.45-2.24.67-3.52.67Z" fill="#fff"></path><path d="M394.23,164.91c-1.32,0-2.57-.19-3.75-.56-1.18-.37-2.1-.85-2.77-1.42l.98-1.71c.65.49,1.48.91,2.5,1.26,1.02.36,2.08.53,3.2.53,1.52,0,2.62-.24,3.29-.72s1.01-1.11,1.01-1.91c0-.59-.19-1.05-.56-1.39-.38-.34-.87-.59-1.48-.76-.61-.17-1.29-.32-2.04-.44-.75-.12-1.5-.26-2.24-.43-.74-.16-1.42-.4-2.03-.72-.61-.31-1.1-.75-1.48-1.29-.38-.55-.56-1.28-.56-2.2s.24-1.66.73-2.35c.49-.69,1.2-1.23,2.15-1.63s2.1-.59,3.46-.59c1.04,0,2.07.14,3.11.41,1.04.27,1.89.64,2.56,1.08l-.94,1.74c-.71-.49-1.47-.84-2.29-1.05-.81-.21-1.63-.32-2.44-.32-1.44,0-2.5.25-3.19.75-.68.5-1.02,1.13-1.02,1.9,0,.61.19,1.09.56,1.43.38.35.87.62,1.49.81.62.19,1.3.35,2.04.47.74.12,1.48.27,2.22.44.74.17,1.42.41,2.04.7s1.12.71,1.49,1.25c.38.54.56,1.25.56,2.12,0,.94-.26,1.74-.78,2.42s-1.27,1.21-2.26,1.58c-.99.38-2.18.56-3.58.56Z" fill="#fff"></path><path d="M412.67,164.91c-1.58,0-3-.35-4.25-1.05-1.25-.7-2.23-1.66-2.94-2.9-.71-1.23-1.07-2.64-1.07-4.22s.36-3.02,1.07-4.24c.71-1.22,1.69-2.17,2.94-2.86,1.25-.69,2.67-1.04,4.25-1.04,1.36,0,2.59.26,3.69.79,1.1.53,1.96,1.32,2.59,2.38l-1.62,1.1c-.55-.81-1.23-1.41-2.04-1.8-.81-.39-1.7-.58-2.65-.58-1.14,0-2.16.26-3.08.78-.91.52-1.64,1.25-2.16,2.18-.53.93-.79,2.03-.79,3.29s.26,2.36.79,3.29c.53.93,1.25,1.66,2.16,2.18.91.52,1.94.78,3.08.78.95,0,1.84-.19,2.65-.58.81-.39,1.49-.98,2.04-1.77l1.62,1.1c-.63,1.04-1.49,1.82-2.59,2.36s-2.33.81-3.69.81Z" fill="#fff"></path><path d="M428.91,164.91c-1.2,0-2.24-.2-3.12-.6-.88-.4-1.56-.94-2.03-1.64-.47-.7-.7-1.51-.7-2.42,0-.83.2-1.59.59-2.27.4-.68,1.05-1.23,1.95-1.65.9-.42,2.12-.62,3.64-.62h5.52v1.62h-5.46c-1.54,0-2.62.27-3.22.82s-.9,1.23-.9,2.04c0,.91.36,1.64,1.07,2.19.71.55,1.71.82,2.99.82s2.27-.28,3.15-.84c.88-.56,1.53-1.37,1.94-2.42l.49,1.49c-.41,1.06-1.11,1.9-2.12,2.53-1.01.63-2.27.94-3.79.94ZM434.43,164.75v-3.54l-.09-.58v-5.91c0-1.36-.38-2.41-1.14-3.14-.76-.73-1.89-1.1-3.4-1.1-1.04,0-2.02.17-2.96.52-.93.35-1.73.8-2.38,1.37l-.98-1.62c.81-.69,1.79-1.22,2.93-1.6,1.14-.38,2.34-.56,3.6-.56,2.07,0,3.67.51,4.8,1.54,1.13,1.03,1.69,2.59,1.69,4.68v9.94h-2.07Z" fill="#fff"></path><path d="M443.6,164.75v-22.61h2.16v22.61h-2.16Z" fill="#fff"></path><path d="M457.53,164.91c-1.2,0-2.24-.2-3.12-.6-.88-.4-1.56-.94-2.03-1.64-.47-.7-.7-1.51-.7-2.42,0-.83.2-1.59.59-2.27.4-.68,1.05-1.23,1.95-1.65.9-.42,2.12-.62,3.64-.62h5.52v1.62h-5.46c-1.54,0-2.62.27-3.22.82s-.9,1.23-.9,2.04c0,.91.36,1.64,1.07,2.19.71.55,1.71.82,2.99.82s2.27-.28,3.15-.84c.88-.56,1.53-1.37,1.94-2.42l.49,1.49c-.41,1.06-1.11,1.9-2.12,2.53-1.01.63-2.27.94-3.79.94ZM463.05,164.75v-3.54l-.09-.58v-5.91c0-1.36-.38-2.41-1.14-3.14-.76-.73-1.89-1.1-3.4-1.1-1.04,0-2.02.17-2.96.52-.93.35-1.73.8-2.38,1.37l-.98-1.62c.81-.69,1.79-1.22,2.93-1.6,1.14-.38,2.34-.56,3.6-.56,2.07,0,3.67.51,4.8,1.54,1.13,1.03,1.69,2.59,1.69,4.68v9.94h-2.07Z" fill="#fff"></path></g></svg>